<svg width="1140" height="49" viewBox="0 0 1140 49" fill="none" xmlns="http://www.w3.org/2000/svg">
<g clip-path="url(#clip0_18_7)">
<path d="M140.083 23.7289L148 44.711C145.667 44.3774 143.335 43.9596 140.96 43.5831L136.5 31.9897L131.917 42.6261C129.668 42.2497 127.459 42.1243 125.209 41.832L133.251 23.4795L125.957 4.66895H132.708L136.791 15.1787L141.167 4.66895H147.999L140.083 23.7289ZM120.627 4.66895H114.501V41.0405C116.502 41.166 118.584 41.2487 120.627 41.4983V4.66895ZM109.209 40.6228C103.627 40.2476 98.0427 39.9154 92.3347 39.7885V4.66911H98.5842V33.8662C102.168 33.9491 105.751 34.2401 109.209 34.4069V40.6228ZM85.6667 18.8932V25.1491H77.1255V39.372H70.9602V4.66895H88.4601V10.9248H77.1267V18.8933H85.668L85.6667 18.8932ZM60.4588 10.9248V39.7057C58.3748 39.7057 56.2509 39.7057 54.2081 39.7885V10.9248H47.7496V4.66895H66.9573V10.9248H60.4588ZM41.0003 25.4815C38.2508 25.4815 35.0001 25.4815 32.6668 25.6083V34.9087C36.3335 34.6578 40.0001 34.3667 43.708 34.2414V40.2476L26.4175 41.6251V4.66895H43.7069V10.9248H32.6667V19.351C35.084 19.351 38.792 19.2256 41 19.2256V25.4828L41.0003 25.4815ZM6.37342 21.9778V43.834C4.12543 44.0849 2.12405 44.3772 0 44.711V4.66895H5.95876L14.0829 27.4023V4.66895H20.3335V42.1243C18.1255 42.5007 15.8749 42.6261 13.5002 42.9585L6.37342 21.9778Z" fill="#FE9A52"/>
</g>
<g clip-path="url(#clip1_18_7)">
<path d="M230.977 12.3741C228.802 12.3741 228.149 13.3335 228.149 15.4703V19.0027H233.98L233.414 24.7591H228.149V42.1593H221.143V24.7591H216.444V19.0463H221.143V15.6012C221.143 9.75749 223.493 6.70483 229.976 6.70483C231.325 6.70483 232.718 6.79205 234.067 6.96649V12.3741" fill="#FE9A52"/>
<path d="M234.459 29.8565C234.459 23.4023 237.505 18.5181 243.945 18.5181C247.426 18.5181 249.558 20.3061 250.602 22.5737V19.0414H257.303V42.198H250.559V38.7092C249.601 40.9333 247.382 42.6777 243.901 42.6777C237.505 42.6777 234.415 37.837 234.415 31.3392L234.459 29.8565ZM241.464 31.4264C241.464 34.8716 242.726 37.1829 245.99 37.1829C248.862 37.1829 250.297 35.0896 250.297 31.7753V29.4204C250.297 26.1061 248.818 24.0128 245.99 24.0128C242.726 24.0128 241.464 26.2805 241.464 29.7693V31.4264V31.4264Z" fill="#FE9A52"/>
<path d="M271.836 18.5181C274.534 18.5181 277.145 19.085 278.537 20.088L276.971 25.0595C275.535 24.3617 273.925 24.0128 272.315 24.0128C268.529 24.0128 266.876 26.1933 266.876 29.9437V31.2956C266.876 35.046 268.529 37.2265 272.315 37.2265C273.925 37.2265 275.535 36.834 276.971 36.1363L278.537 41.1077C277.145 42.0671 274.578 42.6777 271.836 42.6777C263.612 42.6777 259.914 38.2731 259.914 31.1648V30.0746C259.914 22.9662 263.612 18.5181 271.836 18.5181" fill="#FE9A52"/>
<path d="M279.45 31.4701V29.4204C279.45 22.8354 283.192 18.5181 290.807 18.5181C297.987 18.5181 301.163 22.879 301.163 29.3332V33.04H286.456C286.586 36.2235 288.022 37.619 291.895 37.619C294.418 37.619 296.942 37.1393 299.335 36.2235L300.597 41.0205C298.77 41.9799 294.984 42.7213 291.634 42.7213C282.757 42.6777 279.45 38.2731 279.45 31.4701V31.4701ZM286.456 28.4174H294.897V27.8505C294.897 25.3211 293.896 23.3151 290.807 23.3151C287.674 23.3151 286.456 25.3211 286.456 28.4174Z" fill="#FE9A52"/>
<path d="M327.097 31.3392C327.097 37.7934 324.007 42.6776 317.568 42.6776C314.086 42.6776 311.65 40.9333 310.692 38.7092V42.1979H304.079V7.39764L311.084 6.78711V22.2684C312.085 20.2188 314.348 18.5616 317.611 18.5616C324.007 18.5616 327.14 23.4023 327.14 29.9001L327.097 31.3392ZM320.091 29.7256C320.091 26.4549 318.829 24.0128 315.479 24.0128C312.607 24.0128 311.084 26.0625 311.084 29.3768V31.8189C311.084 35.1332 312.651 37.1828 315.479 37.1828C318.829 37.1828 320.091 34.7407 320.091 31.47V29.7256Z" fill="#FE9A52"/>
<path d="M329.403 31.1648V29.9873C329.403 23.3151 333.189 18.5181 340.89 18.5181C348.592 18.5181 352.378 23.3151 352.378 29.9873V31.1648C352.378 37.837 348.592 42.6341 340.89 42.6341C333.189 42.6341 329.403 37.8806 329.403 31.1648V31.1648ZM345.416 29.5076C345.416 26.455 344.154 24.0128 340.89 24.0128C337.627 24.0128 336.365 26.455 336.365 29.5076V31.6881C336.365 34.7408 337.627 37.1829 340.89 37.1829C344.154 37.1829 345.416 34.7408 345.416 31.6881V29.5076V29.5076Z" fill="#FE9A52"/>
<path d="M354.772 31.1648V29.9873C354.772 23.3151 358.557 18.5181 366.259 18.5181C373.961 18.5181 377.746 23.3151 377.746 29.9873V31.1648C377.746 37.837 373.961 42.6341 366.259 42.6341C358.557 42.6341 354.772 37.8806 354.772 31.1648V31.1648ZM370.784 29.5076C370.784 26.455 369.522 24.0128 366.259 24.0128C362.996 24.0128 361.734 26.455 361.734 29.5076V31.6881C361.734 34.7408 362.996 37.1829 366.259 37.1829C369.522 37.1829 370.784 34.7408 370.784 31.6881V29.5076V29.5076Z" fill="#FE9A52"/>
<path d="M387.362 30.0744L394.28 18.9976H401.678L394.454 30.4669L401.982 42.1978H394.542L387.362 30.8594V42.1978H380.4V7.39755L387.362 6.74341" fill="#FE9A52"/>
</g>
<g clip-path="url(#clip2_18_7)">
<path d="M497.299 8.06763L470.427 6.57299L487.94 25.3539L497.299 8.06763ZM483.855 6.06434L496.25 6.94861L480.889 0.938721L483.855 6.06434ZM499.373 6.94861L505.977 0.938721L510.43 7.32422L499.373 6.94861ZM498.629 8.13806L488.902 26.0973L497.737 35.8164L507.675 26.5433L510.422 8.73279L498.629 8.13806ZM489.427 28.9144L484.747 48.4387L496.915 36.8572L489.427 28.9144ZM507.386 1.23608L512.136 7.32422L534.18 1.23608H507.386Z" fill="#FE9A52"/>
<path d="M528.036 12.2935C528.044 13.8038 527.95 15.3062 527.754 16.8009C526.197 16.8556 524.249 16.2922 524.303 18.9685C526.698 18.9137 527.34 18.9685 527.34 18.9685C527.34 18.9685 527.23 23.7028 523.662 23.5229C522.378 30.7613 521.158 37.1077 521.158 37.1077H515.445L518.56 16.8635C518.56 16.8635 519.279 12.7473 523.012 12.3091L528.036 12.2935ZM525.532 37.1234L528.537 18.6477H533.772L534.179 20.0406C534.179 20.0406 535.494 18.2016 539.445 18.6477C538.499 23.1551 538.334 23.8281 538.334 23.8281C538.334 23.8281 533.991 23.382 533.655 24.7749C533.318 26.1678 531.597 37.1312 531.597 37.1312L525.532 37.1234ZM571.897 21.9813C570.731 19.8684 568.611 17.9355 563.602 18.5694C558.594 19.2033 555.002 24.1332 555.253 30.8239C555.761 36.3878 559.713 37.3738 561.098 37.5616C570.504 38.6728 570.622 33.7741 570.677 31.9351C568.728 31.9351 567.812 31.9743 566.999 31.9899C566.764 32.7568 562.953 32.3812 562.953 32.3812C562.953 32.3812 561.505 32.2716 561.396 29.7127H571.921C571.913 29.7127 573.071 24.1019 571.897 21.9813ZM566.498 26.4887C565.441 26.5982 561.881 26.4887 561.881 26.4887C563.274 20.9796 567.108 23.3742 566.498 26.4887ZM645.816 21.9813C644.65 19.8684 642.529 17.9355 637.521 18.5694C632.513 19.2033 628.921 24.1332 629.171 30.8239C629.68 36.3878 633.632 37.3738 635.017 37.5616C644.423 38.6728 644.54 33.7741 644.595 31.9351C642.646 31.9351 641.731 31.9743 640.917 31.9899C640.682 32.7568 636.871 32.3812 636.871 32.3812C636.871 32.3812 635.424 32.2716 635.314 29.7127H645.824C645.816 29.7127 646.958 24.1019 645.816 21.9813ZM640.416 26.4887C639.36 26.5982 635.799 26.4887 635.799 26.4887C637.169 20.9796 641.011 23.3742 640.393 26.4887H640.416Z" fill="#FE9A52"/>
<path d="M554.722 21.9813C553.556 19.8684 551.435 17.9355 546.427 18.5694C541.419 19.2033 537.827 24.1332 538.077 30.8239C538.586 36.3878 542.538 37.3738 543.923 37.5616C553.329 38.6728 553.446 33.7741 553.501 31.9351C551.553 31.9351 550.637 31.9743 549.823 31.9899C549.589 32.7568 545.778 32.3812 545.778 32.3812C545.778 32.3812 544.33 32.2716 544.22 29.7127H554.73C554.722 29.7127 555.896 24.1019 554.722 21.9813ZM549.315 26.4887C548.258 26.5982 544.698 26.4887 544.698 26.4887C546.114 20.9796 549.933 23.3742 549.315 26.4887ZM575.851 12.7395L572.008 37.1155H578.136L582.252 12.7395H575.851ZM596.392 37.1233L599.507 18.5772H604.961V19.9936C604.961 19.9936 606.855 17.9355 611.863 18.5772C616.871 19.2111 614.367 28.1085 614.367 28.1085L613.029 37.139H607.019C607.019 37.139 608.412 28.0303 608.686 25.6122C608.404 22.8812 605.18 22.9986 604.397 24.9471C604.006 27.3416 602.23 37.139 602.23 37.139L596.392 37.1233ZM623.499 23.875H629.008L629.517 20.2597C629.517 20.2597 630.182 18.5929 627.85 18.5616C625.518 18.5303 622.005 18.5616 622.005 18.5616C622.005 18.5616 615.157 19.5319 615.549 32.9524C615.909 35.347 617.732 37.2642 620.103 37.7337C620.612 37.8433 624.149 37.7337 624.149 37.7337C624.149 37.7337 628.101 37.2251 627.545 32.2794C623.429 32.389 621.699 32.5612 621.472 31.3874C621.238 30.2214 621.942 24.321 623.499 23.875ZM647.21 24.7593L654.409 18.5538L651.663 37.1233H645.582L647.21 24.7593Z" fill="#FE9A52"/>
<path d="M655.895 18.5534L654.854 25.2049L666.06 18.4517L655.895 18.5534Z" fill="#FE9A52"/>
<path d="M592.831 18.5694C588.214 18.5303 587.15 18.6085 585.428 18.5694C583.699 18.5303 582.533 21.097 582.642 23.8202H589.724C589.724 23.8202 590.444 23.7107 590.507 24.3289C590.538 24.9236 590.538 25.5183 590.507 26.1131H585.373C585.373 26.1131 578.135 26.7782 580.42 35.5192C580.866 36.8573 583.088 37.7885 584.317 37.7416C585.546 37.6946 588.605 36.5756 589.106 36.1295L589.161 37.186L594.615 37.1312C594.615 37.1312 596.454 25.7218 596.673 24.7749C596.892 23.8281 597.284 20.1736 592.831 18.5694ZM588.057 33.0776C585.906 33.0776 585.608 30.9961 587.322 29.8849C589.028 29.1415 590.069 29.5875 590.069 29.5875C590.069 29.5875 590.147 33.1559 588.057 33.0776Z" fill="#FE9A52"/>
</g>
<path d="M806.756 34.6904V20.1441L801.029 34.6904H799.144L793.418 20.1467V34.6904H789.095V14.5205H795.154L800.086 27.1288L805.019 14.5205H811.107V34.6904H806.756Z" fill="#FE9A52"/>
<path d="M823.525 34.6902V33.1457C822.52 34.3548 820.785 35.05 818.867 35.05C816.522 35.05 813.782 33.4777 813.782 30.2126C813.782 26.7655 816.522 25.4957 818.867 25.4957C820.846 25.4957 822.551 26.1306 823.525 27.2799V25.4352C823.525 23.9537 822.247 22.986 820.298 22.986C818.745 22.986 817.283 23.5912 816.066 24.7075L814.542 22.0167C816.337 20.4142 818.652 19.7183 820.966 19.7183C824.346 19.7183 827.421 21.0485 827.421 25.2511V34.6902H823.525ZM823.525 31.1823V29.3662C822.886 28.5193 821.668 28.0659 820.419 28.0659C818.896 28.0659 817.649 28.8821 817.649 30.2731C817.649 31.6646 818.897 32.4501 820.419 32.4501C821.668 32.4501 822.888 32.0265 823.525 31.1797V31.1823Z" fill="#FE9A52"/>
<path d="M830.537 34.6904V20.0835H834.402V34.6904H830.537Z" fill="#FE9A52"/>
<path d="M837.597 34.6904V14.5205H841.464V34.6904H837.597Z" fill="#FE9A52"/>
<path d="M844.909 34.6904V14.5205H855.596C859.462 14.5205 861.441 16.9723 861.441 19.6605C861.441 22.1702 859.858 23.8933 857.94 24.2867C860.132 24.619 861.837 26.7051 861.837 29.215C861.837 32.2687 859.827 34.6878 855.93 34.6878L844.909 34.6904ZM857.026 20.419C857.026 19.1795 856.113 18.3026 854.651 18.3026H849.231V22.5354H854.65C856.111 22.5354 857.025 21.719 857.025 20.419H857.026ZM857.422 28.6128C857.422 27.3432 856.509 26.3149 854.834 26.3149H849.231V30.9109H854.833C856.447 30.9109 857.421 30.0641 857.421 28.6128H857.422Z" fill="#FE9A52"/>
<path d="M864.642 34.6904V14.5205H868.509V34.6904H864.642Z" fill="#FE9A52"/>
<path d="M881.591 34.6904V32.8429C880.586 33.9317 878.821 35.0501 876.415 35.0501C873.188 35.0501 871.666 33.2967 871.666 30.4544V20.0835H875.534V28.9423C875.534 30.9688 876.599 31.6337 878.243 31.6337C879.735 31.6337 880.922 30.8175 881.592 29.9707V20.0835H885.459V34.6904H881.591Z" fill="#FE9A52"/>
<path d="M887.55 32.7827L889.224 30.0035C890.32 31.0319 892.481 32.0292 894.309 32.0292C895.983 32.0292 896.775 31.3942 896.775 30.4873C896.775 28.0992 888.067 30.064 888.067 24.3195C888.067 21.8677 890.198 19.7236 894.095 19.7236C896.564 19.7236 898.541 20.5703 900.002 21.719L898.449 24.4405C897.566 23.5334 895.891 22.7472 894.095 22.7472C892.695 22.7472 891.784 23.3518 891.784 24.1682C891.784 26.3149 900.522 24.5005 900.522 30.3965C900.522 33.0879 898.211 35.0527 894.129 35.0527C891.569 35.0501 889.103 34.2037 887.55 32.7827Z" fill="#FE9A52"/>
<path d="M903.804 31.0293V23.4399H901.369V20.0835H903.804V16.0928H907.671V20.0835H910.654V23.4399H907.671V30.0035C907.671 30.9426 908.158 31.6363 909.01 31.6363C909.588 31.6363 910.137 31.4245 910.35 31.1824L911.172 34.1166C910.595 34.6309 909.558 35.0553 907.945 35.0553C905.236 35.0501 903.804 33.6594 903.804 31.0293Z" fill="#FE9A52"/>
<path d="M911.763 27.3705C911.763 23.1371 914.929 19.7207 919.375 19.7207C923.788 19.7207 926.743 22.9858 926.743 27.7329V28.6387H915.812C916.087 30.4224 917.546 31.9039 920.045 31.9039C921.293 31.9039 922.998 31.3899 923.941 30.4829L925.675 33.0226C924.213 34.3532 921.899 35.0483 919.616 35.0483C915.142 35.0498 911.763 32.0566 911.763 27.3705ZM919.375 22.8653C916.97 22.8653 915.934 24.5279 915.782 25.9792H923.031C922.906 24.5884 921.932 22.8653 919.375 22.8653Z" fill="#FE9A52"/>
<path d="M929.001 34.6901V20.0833H932.868V22.0489C933.933 20.7787 935.729 19.7207 937.556 19.7207V23.47C937.282 23.4094 936.947 23.3792 936.491 23.3792C935.211 23.3792 933.507 24.1048 932.866 25.0422V34.6901H929.001Z" fill="#FE9A52"/>
<path fill-rule="evenodd" clip-rule="evenodd" d="M754.893 44.317C761.495 44.1044 767.84 40.6102 771.386 34.509C776.843 25.1196 773.605 13.114 764.152 7.69295C754.699 2.27183 742.613 5.48923 737.156 14.878C733.609 20.976 733.736 28.1846 736.852 33.9732C737.626 35.4127 739.687 35.4536 740.509 34.0397L742.795 30.1067C742.803 30.0926 742.812 30.0783 742.821 30.065C742.892 29.9546 742.985 29.8594 743.094 29.7845C743.202 29.71 743.325 29.6572 743.454 29.6296C743.583 29.6019 743.716 29.5997 743.846 29.6229C743.976 29.6465 744.1 29.6952 744.211 29.7665C744.427 29.9115 744.58 30.1332 744.637 30.386C744.695 30.6391 744.653 30.9044 744.52 31.1276L741.062 37.0775C740.817 37.4978 740.728 37.99 740.812 38.4686C740.895 38.9472 741.145 39.3814 741.517 39.6955L741.556 39.7279C741.79 39.9205 742.064 40.06 742.357 40.1368C742.651 40.2131 742.959 40.2249 743.258 40.1714C743.557 40.1179 743.84 39.9999 744.089 39.8261C744.337 39.6519 744.544 39.4265 744.696 39.1645L749.908 30.2044C749.916 30.1904 749.925 30.1764 749.933 30.1627C750.078 29.9403 750.306 29.7838 750.567 29.7277C750.827 29.672 751.1 29.7211 751.324 29.865C751.541 30.0093 751.694 30.231 751.752 30.4838C751.81 30.7369 751.768 31.0026 751.635 31.2262L746.439 40.1637C746.379 40.2663 746.328 40.3736 746.287 40.4843C746.095 40.9998 746.117 41.5699 746.348 42.0691C746.58 42.5684 747.001 42.9558 747.52 43.1462L747.568 43.1635C748.028 43.3274 748.532 43.3251 748.991 43.1573C749.45 42.9894 749.835 42.6665 750.079 42.2451L753.551 36.2724L753.576 36.2311C753.648 36.1207 753.74 36.0255 753.849 35.9506C753.957 35.8757 754.08 35.823 754.209 35.7953C754.338 35.7676 754.471 35.7654 754.601 35.7886C754.731 35.8123 754.855 35.861 754.966 35.9318C755.184 36.0765 755.338 36.2986 755.396 36.5521C755.454 36.8059 755.412 37.072 755.278 37.2959L753.006 41.2042C752.185 42.6174 753.25 44.3694 754.893 44.317ZM753.788 26.8174C754.769 31.8125 758.273 35.6182 760.393 37.521C760.537 37.6502 760.715 37.7343 760.906 37.7635C761.096 37.793 761.291 37.766 761.467 37.6863C761.643 37.607 761.792 37.4779 761.897 37.3148C762.001 37.1517 762.057 36.9616 762.058 36.7672V12.6112C762.058 12.4342 762.011 12.2604 761.923 12.1071C761.836 11.9538 761.709 11.8265 761.557 11.7379C761.405 11.6494 761.233 11.6027 761.057 11.6027C760.882 11.6026 760.709 11.6491 760.557 11.7375L739.797 23.8161C739.63 23.9133 739.494 24.0571 739.406 24.2301C739.318 24.4032 739.282 24.5982 739.302 24.7916C739.321 24.985 739.396 25.1686 739.517 25.3202C739.638 25.4717 739.799 25.5849 739.982 25.646C742.679 26.543 747.698 27.7005 752.481 26.0562C752.525 26.0408 752.569 26.0288 752.615 26.0202C752.744 25.9949 752.877 25.9954 753.005 26.0217C753.134 26.0481 753.257 26.0998 753.366 26.1738C753.474 26.2478 753.568 26.3428 753.64 26.4532C753.713 26.5636 753.763 26.6874 753.788 26.8174Z" fill="#FE9A52"/>
<path d="M834.127 18.7742C833.774 18.4612 833.19 17.8352 833.027 17.0177C833.023 16.9963 833.015 16.9759 833.002 16.9577C832.99 16.9396 832.974 16.924 832.956 16.9118C832.938 16.8997 832.917 16.8913 832.896 16.8871C832.874 16.8829 832.852 16.883 832.83 16.8873C832.823 16.8885 832.816 16.8903 832.809 16.8925C832.012 17.1627 831.177 16.9728 830.727 16.8257C830.686 16.8118 830.651 16.782 830.632 16.7429C830.612 16.7038 830.608 16.6586 830.622 16.6171C830.636 16.5785 830.662 16.5459 830.698 16.5253L834.155 14.5429C834.174 14.5321 834.195 14.5251 834.217 14.5223C834.239 14.5196 834.261 14.5211 834.282 14.5268C834.303 14.5325 834.323 14.5423 834.34 14.5556C834.358 14.569 834.372 14.5855 834.383 14.6045C834.397 14.6293 834.405 14.6576 834.405 14.6864V18.651C834.405 18.6829 834.396 18.7141 834.378 18.7409C834.361 18.7676 834.336 18.7887 834.306 18.8017C834.277 18.8147 834.245 18.819 834.213 18.8142C834.181 18.8093 834.152 18.7954 834.128 18.7742H834.127Z" fill="#FE9A52"/>
<g clip-path="url(#clip3_18_7)">
<path d="M1062.62 25.5156C1058.59 25.5156 1056.58 23.5626 1056.58 19.6569V14.1771H1054.48L1053.26 10.8834H1056.58V6.68604H1060.98V10.8834H1065.21V14.1771H1060.98V19.482C1060.98 20.2982 1061.17 20.9102 1061.54 21.3182C1061.93 21.7263 1062.54 21.9304 1063.37 21.9304C1063.78 21.9304 1064.22 21.8688 1064.61 21.7538L1065.73 24.816C1065.33 25.0298 1064.84 25.1949 1064.28 25.3115C1063.71 25.4476 1063.16 25.5156 1062.62 25.5156Z" fill="#FE9A52"/>
<path d="M1067.38 25.1949V6.57251H1071.78V12.8362C1072.28 12.0978 1072.93 11.544 1073.73 11.1748C1074.53 10.7861 1075.41 10.5918 1076.38 10.5918C1079.74 10.5918 1081.43 12.5933 1081.43 16.5963V25.1949H1077.02V16.8003C1077.02 15.8093 1076.84 15.1 1076.47 14.6725C1076.1 14.2256 1075.56 14.0021 1074.84 14.0021C1073.91 14.0021 1073.16 14.2936 1072.59 14.8766C1072.05 15.4595 1071.78 16.2368 1071.78 17.2084V25.1949H1067.38Z" fill="#FE9A52"/>
<path d="M1092.14 25.5155C1090.45 25.5155 1089 25.2143 1087.77 24.6119C1086.57 23.9901 1085.63 23.1254 1084.97 22.0177C1084.33 20.8907 1084.01 19.5694 1084.01 18.0537C1084.01 16.5769 1084.32 15.2846 1084.94 14.177C1085.59 13.0499 1086.45 12.1755 1087.54 11.5537C1088.65 10.9124 1089.92 10.5918 1091.36 10.5918C1093.44 10.5918 1095.09 11.2525 1096.31 12.5739C1097.54 13.8758 1098.15 15.6441 1098.15 17.8788V18.9864H1088.21C1088.36 20.1135 1088.77 20.9392 1089.43 21.4639C1090.11 21.9691 1091.05 22.2218 1092.23 22.2218C1093.01 22.2218 1093.8 22.1052 1094.59 21.872C1095.39 21.6388 1096.11 21.2793 1096.75 20.7935L1097.91 23.7375C1097.2 24.2816 1096.31 24.7188 1095.26 25.0491C1094.23 25.36 1093.19 25.5155 1092.14 25.5155ZM1091.53 13.5066C1090.6 13.5066 1089.84 13.7884 1089.26 14.3519C1088.69 14.9154 1088.34 15.7024 1088.21 16.7129H1094.5C1094.39 14.5754 1093.4 13.5066 1091.53 13.5066Z" fill="#FE9A52"/>
<path d="M1100.77 25.1949V10.8833H1105.08V12.9528C1105.51 12.2144 1106.09 11.6411 1106.83 11.2331C1107.59 10.8055 1108.46 10.5918 1109.45 10.5918C1110.46 10.5918 1111.32 10.8153 1112.02 11.2622C1112.74 11.7091 1113.28 12.3893 1113.65 13.3026C1114.1 12.4476 1114.74 11.7869 1115.57 11.3205C1116.43 10.8347 1117.37 10.5918 1118.4 10.5918C1120.03 10.5918 1121.25 11.0873 1122.04 12.0783C1122.84 13.0499 1123.24 14.5559 1123.24 16.5963V25.1949H1118.84V16.742C1118.84 15.7899 1118.68 15.1 1118.37 14.6725C1118.08 14.2256 1117.58 14.0021 1116.86 14.0021C1116.02 14.0021 1115.37 14.2936 1114.9 14.8766C1114.44 15.4595 1114.2 16.2854 1114.2 17.3541V25.1949H1109.8V16.742C1109.8 15.7899 1109.65 15.1 1109.34 14.6725C1109.03 14.2256 1108.52 14.0021 1107.82 14.0021C1106.98 14.0021 1106.33 14.2936 1105.87 14.8766C1105.4 15.4595 1105.17 16.2854 1105.17 17.3541V25.1949H1100.77Z" fill="#FE9A52"/>
<path d="M1133.64 25.5155C1131.95 25.5155 1130.49 25.2143 1129.27 24.6119C1128.06 23.9901 1127.13 23.1254 1126.47 22.0177C1125.83 20.8907 1125.51 19.5694 1125.51 18.0537C1125.51 16.5769 1125.82 15.2846 1126.44 14.177C1127.08 13.0499 1127.95 12.1755 1129.03 11.5537C1130.14 10.9124 1131.41 10.5918 1132.85 10.5918C1134.93 10.5918 1136.58 11.2525 1137.81 12.5739C1139.03 13.8758 1139.64 15.6441 1139.64 17.8788V18.9864H1129.7C1129.86 20.1135 1130.27 20.9392 1130.93 21.4639C1131.61 21.9691 1132.54 22.2218 1133.73 22.2218C1134.5 22.2218 1135.29 22.1052 1136.09 21.872C1136.88 21.6388 1137.6 21.2793 1138.24 20.7935L1139.41 23.7375C1138.69 24.2816 1137.81 24.7188 1136.76 25.0491C1135.73 25.36 1134.69 25.5155 1133.64 25.5155ZM1133.03 13.5066C1132.09 13.5066 1131.34 13.7884 1130.75 14.3519C1130.19 14.9154 1129.84 15.7024 1129.7 16.7129H1136C1135.88 14.5754 1134.89 13.5066 1133.03 13.5066Z" fill="#FE9A52"/>
<path d="M1058.99 41.8805L1053.16 27.5688H1057.62L1061.03 36.7505L1064.44 27.5688H1067.36L1070.77 36.8671L1074.18 27.5688H1078.41L1072.63 41.8805H1068.9L1065.76 33.7482L1062.69 41.8805H1058.99Z" fill="#FE9A52"/>
<path d="M1083.99 42.261C1082.93 42.261 1081.98 42.0569 1081.17 41.6488C1080.35 41.2408 1079.7 40.687 1079.21 39.9874C1078.75 39.2879 1078.51 38.5009 1078.51 37.6264C1078.51 36.5965 1078.79 35.7707 1079.33 35.1488C1079.87 34.527 1080.76 34.0898 1081.98 33.8372C1083.21 33.5651 1084.83 33.4291 1086.85 33.4291H1087.9V32.9336C1087.9 32.0786 1087.71 31.4762 1087.32 31.1264C1086.93 30.7572 1086.27 30.5726 1085.33 30.5726C1084.56 30.5726 1083.73 30.6989 1082.86 30.9515C1082 31.1847 1081.15 31.5442 1080.29 32.03L1079.1 29.086C1079.6 28.7557 1080.21 28.4545 1080.93 28.1825C1081.67 27.9104 1082.44 27.7064 1083.24 27.5703C1084.03 27.4149 1084.79 27.3372 1085.51 27.3372C1087.72 27.3372 1089.38 27.8424 1090.46 28.8529C1091.55 29.8439 1092.1 31.3887 1092.1 33.4874V41.9403H1087.99V39.7834C1087.7 40.5412 1087.2 41.1436 1086.5 41.5905C1085.82 42.0375 1084.98 42.261 1083.99 42.261ZM1084.98 39.317C1085.8 39.317 1086.49 39.0352 1087.05 38.4717C1087.62 37.9082 1087.9 37.1795 1087.9 36.2856V35.7026H1086.88C1085.38 35.7026 1084.32 35.8387 1083.7 36.1107C1083.08 36.3633 1082.77 36.8103 1082.77 37.4515C1082.77 37.9956 1082.95 38.4426 1083.32 38.7923C1083.71 39.1421 1084.27 39.317 1084.98 39.317Z" fill="#FE9A52"/>
<path d="M1101.92 42.2609C1100.24 42.2609 1098.81 41.9481 1097.63 41.3227C1096.46 40.6972 1095.4 39.9161 1094.68 38.7582C1093.93 37.5528 1093.77 36.2564 1093.77 34.7552C1093.77 33.1984 1093.97 31.7423 1094.78 30.595C1095.61 29.4116 1096.59 28.6673 1097.79 28.0419C1099 27.4164 1100.53 27.3662 1102.17 27.3662C1103.06 27.3662 1104.15 27.3917 1105.08 27.6698C1106.01 27.9478 1106.7 28.1759 1107.38 28.6048L1106.22 31.5654C1105.15 30.8686 1103.69 30.595 1102.17 30.595C1100.85 30.595 1099.76 31.0688 1099.07 31.8194C1098.39 32.5699 1098.02 33.3375 1098.02 34.7552C1098.02 36.173 1098.52 37.1691 1099.21 37.8919C1099.91 38.6145 1100.79 39.0501 1102.15 39.0501C1102.79 39.0501 1103.51 38.9528 1104.3 38.7582V36.444H1101.36V33.7545H1107.43V41.135C1106.65 41.4963 1105.78 41.7744 1104.82 41.969C1103.86 42.1635 1102.9 42.2609 1101.92 42.2609Z" fill="#FE9A52"/>
<path d="M1116.62 42.261C1115.09 42.261 1113.74 41.9598 1112.6 41.3574C1111.47 40.7355 1110.6 39.8708 1109.97 38.7632C1109.35 37.6361 1109.04 36.305 1109.04 34.7699C1109.04 33.2542 1109.35 31.9425 1109.97 30.8349C1110.6 29.7079 1111.47 28.8431 1112.6 28.2407C1113.74 27.6384 1115.09 27.3372 1116.62 27.3372C1118.16 27.3372 1119.49 27.6384 1120.61 28.2407C1121.76 28.8431 1122.64 29.7079 1123.27 30.8349C1123.91 31.9425 1124.23 33.2542 1124.23 34.7699C1124.23 36.305 1123.91 37.6361 1123.27 38.7632C1122.64 39.8708 1121.76 40.7355 1120.61 41.3574C1119.49 41.9598 1118.16 42.261 1116.62 42.261ZM1116.62 38.9672C1117.55 38.9672 1118.31 38.6272 1118.89 37.947C1119.5 37.2669 1119.8 36.2079 1119.8 34.7699C1119.8 33.3514 1119.5 32.3118 1118.89 31.6511C1118.31 30.9709 1117.55 30.6309 1116.62 30.6309C1115.69 30.6309 1114.93 30.9709 1114.35 31.6511C1113.76 32.3118 1113.47 33.3514 1113.47 34.7699C1113.47 36.2079 1113.76 37.2669 1114.35 37.947C1114.93 38.6272 1115.69 38.9672 1116.62 38.9672Z" fill="#FE9A52"/>
<path d="M1125.89 41.9403V27.6286H1130.21V29.7273C1130.69 28.95 1131.34 28.3573 1132.16 27.9493C1132.98 27.5412 1133.89 27.3372 1134.9 27.3372C1136.59 27.3372 1137.85 27.8327 1138.69 28.8237C1139.53 29.7953 1139.94 31.3013 1139.94 33.3417V41.9403H1135.54V33.5457C1135.54 32.5547 1135.36 31.8454 1134.99 31.4179C1134.62 30.9709 1134.07 30.7475 1133.36 30.7475C1132.42 30.7475 1131.67 31.039 1131.11 31.6219C1130.57 32.2049 1130.3 32.9822 1130.3 33.9538V41.9403H1125.89Z" fill="#FE9A52"/>
<path d="M1049.49 26.2289C1049.49 22.4779 1048.37 18.6913 1045.67 16.091C1043.73 14.2308 1041.79 12.9731 1038.71 11.2807C1033.94 8.67161 1027.62 7.37062 1027.62 7.37062C1030.9 6.68934 1033.7 7.34163 1033.82 7.36882C1024.26 2.6923 1017.42 5.95915 1017.42 5.95915L1012.81 2.61621C1011.91 4.1998 1012.49 6.82887 1012.83 8.00842C1012.95 8.41428 1012.89 8.85818 1012.66 9.20608L1009.79 13.6307C1009.68 13.8047 1009.6 14.0185 1009.6 14.2504L1009.52 16.9555C1008.01 19.0809 1007.23 21.1683 1006.83 22.7917C1006.45 22.8696 1006.12 23.2374 1006.03 23.7194C1005.93 24.2412 1006.1 24.725 1006.47 24.9369C1006.41 25.5567 1006.43 25.9045 1006.43 25.9045L1008.93 30.0392C1009.37 30.677 1010.17 30.9289 1010.9 30.6192L1013.71 29.4595C1014.17 29.2656 1014.45 28.8217 1014.45 28.3197V25.8646C1014.45 25.5948 1014.55 25.3428 1014.72 25.149C1015.24 24.5511 1016.6 23.4113 1019.54 23.4113C1023.51 23.4113 1024.55 18.7149 1024.22 16.7816C1024.22 16.7816 1025.75 21.3821 1022.96 23.8932C1021.76 24.9768 1021.6 26.8303 1022.54 28.164C1024.47 31.1807 1024.63 43.1429 1011.77 43.7987C1016.11 46.9497 1021.45 48.8069 1027.23 48.8069C1030.22 48.8069 1033.57 48.0385 1035.77 47.3936C1040.06 45.7067 1042.46 43.7987 1044.8 41.244C1048.4 37.3177 1048.89 32.4146 1048 28.2037C1045.93 18.425 1033.24 9.55395 1020.63 7.66052C1026.84 8.58822 1037.45 10.6392 1044.68 18.6189C1046.75 20.8981 1049.49 26.2289 1049.49 26.2289ZM1011.95 17.5154C1010.98 15.352 1014.28 15.0621 1014.28 15.0621C1013.82 18.521 1011.95 17.5154 1011.95 17.5154Z" fill="#FE9A52"/>
<path d="M1017.82 4.94277C1019.45 4.40464 1020.32 4.17634 1021.81 3.88461L1016.66 0.5C1016.17 0.923984 1015.39 2.82828 1016.02 3.67444L1017.82 4.94277Z" fill="#FE9A52"/>
</g>
<defs>
<clipPath id="clip0_18_7">
<rect width="148" height="40.1205" fill="white" transform="translate(0 4.62866)"/>
</clipPath>
<clipPath id="clip1_18_7">
<rect width="185.538" height="36" fill="white" transform="translate(216.444 6.68872)"/>
</clipPath>
<clipPath id="clip2_18_7">
<rect width="195.634" height="47.5" fill="white" transform="translate(470.427 0.938721)"/>
</clipPath>
<clipPath id="clip3_18_7">
<rect width="134" height="48.3776" fill="white" transform="translate(1006 0.5)"/>
</clipPath>
</defs>
</svg>
