<svg width="219" height="220" viewBox="0 0 219 220" fill="none" xmlns="http://www.w3.org/2000/svg">
<g filter="url(#filter0_dd_201_1626)">
<rect x="74" y="33.2346" width="71" height="71" rx="17" fill="url(#paint0_linear_201_1626)"/>
</g>
<path d="M125.167 46.8333H94.8333C93.1094 46.8333 91.4561 47.5182 90.2371 48.7371C89.0181 49.9561 88.3333 51.6094 88.3333 53.3333V83.6667C88.3333 85.3906 89.0181 87.0439 90.2371 88.2629C91.4561 89.4819 93.1094 90.1667 94.8333 90.1667H125.167C125.523 90.1617 125.878 90.1255 126.228 90.0583L126.878 89.9067H127.03H127.138L127.94 89.6033L128.222 89.4517C128.438 89.3217 128.677 89.2133 128.893 89.0617C129.183 88.8488 129.458 88.6172 129.717 88.3683L129.868 88.1733C130.081 87.9578 130.277 87.726 130.453 87.48L130.648 87.1983C130.8 86.9571 130.93 86.7034 131.038 86.44C131.098 86.3361 131.149 86.2273 131.19 86.115C131.298 85.855 131.363 85.5733 131.45 85.2917V84.9667C131.573 84.5433 131.646 84.107 131.667 83.6667V53.3333C131.667 51.6094 130.982 49.9561 129.763 48.7371C128.544 47.5182 126.891 46.8333 125.167 46.8333ZM94.8333 85.8333C94.2587 85.8333 93.7076 85.6051 93.3013 85.1987C92.8949 84.7924 92.6667 84.2413 92.6667 83.6667V74.3283L99.795 67.1783C99.9964 66.9753 100.236 66.8141 100.5 66.7041C100.764 66.5941 101.047 66.5374 101.333 66.5374C101.619 66.5374 101.903 66.5941 102.167 66.7041C102.431 66.8141 102.67 66.9753 102.872 67.1783L121.505 85.8333H94.8333ZM127.333 83.6667C127.331 83.9338 127.28 84.1983 127.182 84.4467C127.132 84.5523 127.074 84.6537 127.008 84.75C126.95 84.8417 126.885 84.9287 126.813 85.01L115.222 73.4183L117.128 71.5117C117.33 71.3086 117.569 71.1474 117.833 71.0374C118.097 70.9274 118.381 70.8708 118.667 70.8708C118.953 70.8708 119.236 70.9274 119.5 71.0374C119.764 71.1474 120.004 71.3086 120.205 71.5117L127.333 78.6617V83.6667ZM127.333 72.53L123.26 68.5C122.02 67.3235 120.376 66.6676 118.667 66.6676C116.957 66.6676 115.313 67.3235 114.073 68.5L112.167 70.4067L105.927 64.1667C104.687 62.9902 103.043 62.3343 101.333 62.3343C99.624 62.3343 97.9799 62.9902 96.74 64.1667L92.6667 68.1967V53.3333C92.6667 52.7587 92.8949 52.2076 93.3013 51.8013C93.7076 51.395 94.2587 51.1667 94.8333 51.1667H125.167C125.741 51.1667 126.292 51.395 126.699 51.8013C127.105 52.2076 127.333 52.7587 127.333 53.3333V72.53ZM113.25 55.5C112.607 55.5 111.979 55.6906 111.444 56.0477C110.91 56.4048 110.493 56.9124 110.247 57.5063C110.001 58.1001 109.937 58.7536 110.062 59.3841C110.188 60.0145 110.497 60.5936 110.952 61.0481C111.406 61.5026 111.986 61.8122 112.616 61.9376C113.246 62.063 113.9 61.9986 114.494 61.7526C115.088 61.5066 115.595 61.0901 115.952 60.5556C116.309 60.0212 116.5 59.3928 116.5 58.75C116.5 57.8881 116.158 57.0614 115.548 56.4519C114.939 55.8424 114.112 55.5 113.25 55.5Z" fill="#FE9A52"/>
<defs>
<filter id="filter0_dd_201_1626" x="0" y="0.234619" width="219" height="219" filterUnits="userSpaceOnUse" color-interpolation-filters="sRGB">
<feFlood flood-opacity="0" result="BackgroundImageFix"/>
<feColorMatrix in="SourceAlpha" type="matrix" values="0 0 0 0 0 0 0 0 0 0 0 0 0 0 0 0 0 0 127 0" result="hardAlpha"/>
<feOffset dy="41"/>
<feGaussianBlur stdDeviation="37"/>
<feColorMatrix type="matrix" values="0 0 0 0 1 0 0 0 0 0.927379 0 0 0 0 0.840234 0 0 0 1 0"/>
<feBlend mode="normal" in2="BackgroundImageFix" result="effect1_dropShadow_201_1626"/>
<feColorMatrix in="SourceAlpha" type="matrix" values="0 0 0 0 0 0 0 0 0 0 0 0 0 0 0 0 0 0 127 0" result="hardAlpha"/>
<feOffset dy="4"/>
<feGaussianBlur stdDeviation="7.5"/>
<feColorMatrix type="matrix" values="0 0 0 0 1 0 0 0 0 0.901515 0 0 0 0 0.783333 0 0 0 0.66 0"/>
<feBlend mode="normal" in2="effect1_dropShadow_201_1626" result="effect2_dropShadow_201_1626"/>
<feBlend mode="normal" in="SourceGraphic" in2="effect2_dropShadow_201_1626" result="shape"/>
</filter>
<linearGradient id="paint0_linear_201_1626" x1="74" y1="33.2346" x2="152.117" y2="42.1966" gradientUnits="userSpaceOnUse">
<stop stop-color="white"/>
<stop offset="1" stop-color="white"/>
</linearGradient>
</defs>
</svg>
