<svg width="220" height="220" viewBox="0 0 220 220" fill="none" xmlns="http://www.w3.org/2000/svg">
<g filter="url(#filter0_dd_201_1616)">
<rect x="74.5" y="33.2346" width="71" height="71" rx="17" fill="url(#paint0_linear_201_1616)"/>
</g>
<path d="M100.833 66.3333C100.405 66.3333 99.9859 66.4604 99.6296 66.6985C99.2733 66.9366 98.9956 67.275 98.8316 67.6709C98.6676 68.0668 98.6247 68.5024 98.7083 68.9227C98.7919 69.343 98.9982 69.7291 99.3013 70.0321C99.6043 70.3351 99.9903 70.5414 100.411 70.625C100.831 70.7086 101.267 70.6657 101.662 70.5017C102.058 70.3378 102.397 70.0601 102.635 69.7037C102.873 69.3474 103 68.9285 103 68.5C103 67.9254 102.772 67.3743 102.365 66.9679C101.959 66.5616 101.408 66.3333 100.833 66.3333ZM109.5 66.3333C109.071 66.3333 108.653 66.4604 108.296 66.6985C107.94 66.9366 107.662 67.275 107.498 67.6709C107.334 68.0668 107.291 68.5024 107.375 68.9227C107.459 69.343 107.665 69.7291 107.968 70.0321C108.271 70.3351 108.657 70.5414 109.077 70.625C109.498 70.7086 109.933 70.6657 110.329 70.5017C110.725 70.3378 111.063 70.0601 111.302 69.7037C111.54 69.3474 111.667 68.9285 111.667 68.5C111.667 67.9254 111.438 67.3743 111.032 66.9679C110.626 66.5616 110.075 66.3333 109.5 66.3333ZM118.167 66.3333C117.738 66.3333 117.319 66.4604 116.963 66.6985C116.607 66.9366 116.329 67.275 116.165 67.6709C116.001 68.0668 115.958 68.5024 116.042 68.9227C116.125 69.343 116.332 69.7291 116.635 70.0321C116.938 70.3351 117.324 70.5414 117.744 70.625C118.164 70.7086 118.6 70.6657 118.996 70.5017C119.392 70.3378 119.73 70.0601 119.968 69.7037C120.206 69.3474 120.333 68.9285 120.333 68.5C120.333 67.9254 120.105 67.3743 119.699 66.9679C119.292 66.5616 118.741 66.3333 118.167 66.3333ZM109.5 46.8333C106.655 46.8333 103.837 47.3938 101.209 48.4826C98.5798 49.5715 96.1913 51.1674 94.1793 53.1794C90.116 57.2427 87.8333 62.7537 87.8333 68.5C87.8144 73.5031 89.5467 78.3552 92.73 82.215L88.3967 86.5483C88.096 86.853 87.8924 87.2399 87.8114 87.6602C87.7304 88.0806 87.7757 88.5154 87.9417 88.91C88.1216 89.2999 88.4133 89.6274 88.7798 89.8512C89.1463 90.0749 89.571 90.1847 90 90.1667H109.5C115.246 90.1667 120.757 87.8839 124.821 83.8207C128.884 79.7574 131.167 74.2464 131.167 68.5C131.167 62.7537 128.884 57.2427 124.821 53.1794C120.757 49.1161 115.246 46.8333 109.5 46.8333ZM109.5 85.8333H95.2217L97.2367 83.8183C97.4414 83.6177 97.6042 83.3784 97.7158 83.1143C97.8274 82.8503 97.8855 82.5667 97.8867 82.28C97.8785 81.7085 97.6449 81.1634 97.2367 80.7633C94.3996 77.9294 92.6329 74.1995 92.2375 70.2091C91.8421 66.2186 92.8425 62.2145 95.0683 58.879C97.2941 55.5434 100.608 53.0828 104.444 51.9163C108.281 50.7498 112.403 50.9496 116.109 52.4817C119.815 54.0137 122.875 56.7833 124.767 60.3184C126.66 63.8536 127.269 67.9357 126.489 71.8692C125.71 75.8027 123.59 79.3443 120.493 81.8905C117.395 84.4368 113.51 85.8302 109.5 85.8333Z" fill="#FE9A52"/>
<defs>
<filter id="filter0_dd_201_1616" x="0.5" y="0.234619" width="219" height="219" filterUnits="userSpaceOnUse" color-interpolation-filters="sRGB">
<feFlood flood-opacity="0" result="BackgroundImageFix"/>
<feColorMatrix in="SourceAlpha" type="matrix" values="0 0 0 0 0 0 0 0 0 0 0 0 0 0 0 0 0 0 127 0" result="hardAlpha"/>
<feOffset dy="41"/>
<feGaussianBlur stdDeviation="37"/>
<feColorMatrix type="matrix" values="0 0 0 0 1 0 0 0 0 0.927379 0 0 0 0 0.840234 0 0 0 1 0"/>
<feBlend mode="normal" in2="BackgroundImageFix" result="effect1_dropShadow_201_1616"/>
<feColorMatrix in="SourceAlpha" type="matrix" values="0 0 0 0 0 0 0 0 0 0 0 0 0 0 0 0 0 0 127 0" result="hardAlpha"/>
<feOffset dy="4"/>
<feGaussianBlur stdDeviation="7.5"/>
<feColorMatrix type="matrix" values="0 0 0 0 1 0 0 0 0 0.901515 0 0 0 0 0.783333 0 0 0 0.66 0"/>
<feBlend mode="normal" in2="effect1_dropShadow_201_1616" result="effect2_dropShadow_201_1616"/>
<feBlend mode="normal" in="SourceGraphic" in2="effect2_dropShadow_201_1616" result="shape"/>
</filter>
<linearGradient id="paint0_linear_201_1616" x1="74.5" y1="33.2346" x2="152.617" y2="42.1966" gradientUnits="userSpaceOnUse">
<stop stop-color="white"/>
<stop offset="1" stop-color="white"/>
</linearGradient>
</defs>
</svg>
