<svg version="1.1" id="Layer_1" xmlns="http://www.w3.org/2000/svg" xmlns:xlink="http://www.w3.org/1999/xlink" x="0px" y="0px"
	 width="100%" viewBox="0 0 117 120" enable-background="new 0 0 117 120" xml:space="preserve">
<path fill="#FFFFFF" opacity="1.000000" stroke="none" 
	d="
M1.000000,23.000000 
	C1.000000,15.685476 1.000000,8.370952 1.000000,1.028214 
	C39.881142,1.028214 78.762314,1.028214 118.000000,1.028214 
	C118.000000,11.351500 118.000000,21.707092 117.633987,32.492447 
	C115.932556,31.424881 114.602135,29.923061 113.260437,28.431377 
	C111.609901,26.596336 110.275497,23.779503 108.238129,23.109753 
	C99.084938,20.100773 89.866638,16.748592 80.404045,15.402284 
	C73.485184,14.417890 66.149727,16.361462 58.666489,16.999931 
	C57.888695,16.999949 57.444382,16.999949 56.913651,16.610321 
	C54.534698,15.827234 52.251389,15.192976 49.947163,15.104716 
	C47.392422,15.006863 44.807358,15.313210 42.255920,15.615779 
	C39.159405,15.982988 36.084248,16.530308 32.624886,16.999718 
	C31.499996,16.999720 30.750074,16.999708 29.772972,16.730038 
	C27.711220,17.126240 25.499403,17.351627 24.112123,18.539757 
	C19.784834,22.245844 13.281658,19.557840 9.279672,23.877251 
	C9.222201,23.939276 8.971161,23.805069 8.807815,23.788416 
	C6.205465,23.523104 3.602683,23.262035 1.000000,23.000000 
z"/>
<path fill="#FFF6ED" opacity="1.000000" stroke="none" 
	d="
M88.000000,121.000000 
	C68.979103,121.000000 49.958210,121.000000 30.468700,120.565041 
	C31.452181,113.246513 26.185541,109.314972 22.983335,104.570686 
	C18.601988,98.079407 14.353177,91.687180 14.976693,83.310631 
	C15.746747,72.965431 16.223665,62.596153 17.182903,52.270325 
	C17.294111,51.073227 19.670258,50.086533 20.997250,49.470684 
	C20.999117,59.082253 20.763142,68.235176 21.138762,77.362930 
	C21.258596,80.275024 23.001415,83.120323 24.108925,86.216507 
	C24.415731,86.711685 24.677788,86.899071 25.050873,87.336601 
	C26.736601,89.446144 28.373856,91.218063 29.640305,93.066681 
	C27.097954,97.447861 28.278208,100.873726 32.498329,101.882744 
	C36.185768,102.764404 39.927971,103.697090 43.687874,103.929558 
	C49.243713,104.273048 54.968102,103.268974 60.377644,104.220558 
	C66.032990,105.215378 71.472588,105.232674 76.361900,102.790306 
	C81.142883,100.402039 85.517624,96.981178 89.550217,93.423622 
	C91.131302,92.028786 93.195480,88.458771 88.155716,87.682999 
	C89.540924,84.091125 91.648598,80.863815 91.830231,77.531532 
	C92.323433,68.483032 91.912720,59.388329 92.090599,50.316452 
	C92.119110,48.862316 93.332909,47.431419 94.144661,46.322315 
	C95.193230,48.736401 96.707611,50.766541 96.887642,52.908821 
	C97.509491,60.308643 97.639626,67.748917 98.020859,75.170509 
	C98.104202,76.793068 98.478020,78.398911 98.671402,80.018021 
	C99.013039,82.878326 99.638298,85.749664 99.577911,88.604393 
	C99.415962,96.260178 90.825897,101.174332 92.555908,109.567146 
	C92.641342,109.981621 91.623085,110.526367 91.409698,111.115784 
	C90.223427,114.392525 89.127106,117.701836 88.000000,121.000000 
z"/>
<path fill="#FFFBF6" opacity="1.000000" stroke="none" 
	d="
M88.468658,121.000000 
	C89.127106,117.701836 90.223427,114.392525 91.409698,111.115784 
	C91.623085,110.526367 92.641342,109.981621 92.555908,109.567146 
	C90.825897,101.174332 99.415962,96.260178 99.577911,88.604393 
	C99.638298,85.749664 99.013039,82.878326 98.671402,80.018021 
	C98.478020,78.398911 98.104202,76.793068 98.020859,75.170509 
	C97.639626,67.748917 97.509491,60.308643 96.887642,52.908821 
	C96.707611,50.766541 95.193230,48.736401 94.076347,45.951462 
	C92.907791,40.832283 91.953445,36.416489 91.230637,31.728123 
	C92.641441,31.303652 93.820724,31.151751 95.190292,31.273739 
	C97.581955,35.135647 100.622063,38.472301 101.790184,42.369987 
	C103.589439,48.373600 103.992722,54.784668 105.245811,60.970695 
	C105.552322,62.483864 106.581207,64.116493 107.761398,65.132858 
	C110.408943,67.412895 111.414085,70.081688 111.014381,73.478050 
	C110.328651,79.304871 114.190010,82.650818 118.000000,86.000000 
	C118.000000,97.587563 118.000000,109.175133 118.000000,121.000000 
	C108.313728,121.000000 98.625519,121.000000 88.468658,121.000000 
z"/>
<path fill="#FFF9F3" opacity="1.000000" stroke="none" 
	d="
M20.996328,49.002289 
	C19.670258,50.086533 17.294111,51.073227 17.182903,52.270325 
	C16.223665,62.596153 15.746747,72.965431 14.976693,83.310631 
	C14.353177,91.687180 18.601988,98.079407 22.983335,104.570686 
	C26.185541,109.314972 31.452181,113.246513 30.000042,120.565041 
	C24.645071,121.000000 19.290142,121.000000 13.467625,120.570190 
	C12.000851,116.432884 10.389360,112.772156 10.101992,109.010284 
	C8.256124,84.846489 11.191349,61.098698 17.190157,37.703152 
	C17.405117,36.864796 19.683975,36.555637 21.000732,36.463055 
	C20.999123,40.951607 20.997725,44.976948 20.996328,49.002289 
z"/>
<path fill="#FFFBF7" opacity="1.000000" stroke="none" 
	d="
M21.000942,35.999844 
	C19.683975,36.555637 17.405117,36.864796 17.190157,37.703152 
	C11.191349,61.098698 8.256124,84.846489 10.101992,109.010284 
	C10.389360,112.772156 12.000851,116.432884 13.000018,120.570190 
	C9.033966,121.000000 5.067933,121.000000 1.000000,121.000000 
	C1.000000,107.979256 1.000000,94.958282 1.372303,81.399033 
	C2.496268,77.965752 3.294125,75.081680 3.982986,72.171814 
	C4.425674,70.301811 4.405692,68.269157 5.123810,66.528336 
	C6.721566,62.655132 9.239234,59.078522 10.320115,55.093052 
	C12.287396,47.839211 13.482333,40.375904 15.249735,32.999840 
	C15.666721,32.999481 15.833513,32.999283 16.288677,32.858688 
	C17.384602,31.478762 18.192158,30.239229 19.353773,29.004841 
	C20.472147,29.673571 21.236462,30.337151 22.000690,31.388027 
	C21.667387,33.183495 21.334166,34.591671 21.000942,35.999844 
z"/>
<path fill="#FFFEFC" opacity="1.000000" stroke="none" 
	d="
M58.999966,16.999916 
	C66.149727,16.361462 73.485184,14.417890 80.404045,15.402284 
	C89.866638,16.748592 99.084938,20.100773 108.238129,23.109753 
	C110.275497,23.779503 111.609901,26.596336 113.260437,28.431377 
	C114.602135,29.923061 115.932556,31.424881 117.633987,32.961105 
	C118.000000,43.020893 118.000000,53.041790 117.644508,63.473488 
	C115.842949,61.410877 114.981384,58.058788 112.838303,56.633179 
	C107.028145,52.768177 105.910110,47.454670 105.905342,41.145969 
	C105.902466,37.338829 105.176598,33.519421 100.504776,32.112839 
	C99.497078,31.809443 98.367126,30.394487 98.127937,29.307865 
	C96.792404,23.240578 91.187096,20.150026 87.011978,18.705782 
	C80.548393,16.469919 72.975838,17.395956 65.867714,17.146822 
	C65.267471,17.125782 64.623505,18.352650 63.583206,18.999826 
	C61.777763,18.999846 60.388958,18.999809 59.000088,18.666302 
	C59.000004,17.888527 58.999985,17.444220 58.999966,16.999916 
z"/>
<path fill="#FEFDFB" opacity="1.000000" stroke="none" 
	d="
M63.999847,18.999771 
	C64.623505,18.352650 65.267471,17.125782 65.867714,17.146822 
	C72.975838,17.395956 80.548393,16.469919 87.011978,18.705782 
	C91.187096,20.150026 96.792404,23.240578 98.127937,29.307865 
	C98.367126,30.394487 99.497078,31.809443 100.504776,32.112839 
	C105.176598,33.519421 105.902466,37.338829 105.905342,41.145969 
	C105.910110,47.454670 107.028145,52.768177 112.838303,56.633179 
	C114.981384,58.058788 115.842949,61.410877 117.644508,63.942146 
	C118.000000,71.020950 118.000000,78.041893 118.000000,85.531418 
	C114.190010,82.650818 110.328651,79.304871 111.014381,73.478050 
	C111.414085,70.081688 110.408943,67.412895 107.761398,65.132858 
	C106.581207,64.116493 105.552322,62.483864 105.245811,60.970695 
	C103.992722,54.784668 103.589439,48.373600 101.790184,42.369987 
	C100.622063,38.472301 97.581955,35.135647 95.154556,30.918358 
	C90.703300,26.875456 86.955521,22.080639 82.127220,20.411604 
	C76.584412,18.495577 70.084183,19.349243 63.999847,18.999771 
z"/>
<path fill="#FFFEFC" opacity="1.000000" stroke="none" 
	d="
M1.000000,23.458069 
	C3.602683,23.262035 6.205465,23.523104 8.807815,23.788416 
	C8.971161,23.805069 9.222201,23.939276 9.279672,23.877251 
	C13.281658,19.557840 19.784834,22.245844 24.112123,18.539757 
	C25.499403,17.351627 27.711220,17.126240 29.564459,16.994297 
	C28.388748,18.685450 27.194374,19.842686 25.858978,21.289070 
	C24.812046,22.052195 23.906137,22.526173 22.615944,23.000526 
	C15.923888,23.351326 15.341655,28.987940 12.680514,33.159653 
	C11.240811,36.071335 9.862039,38.751087 9.066835,41.594067 
	C8.117039,44.989750 7.666691,48.525131 6.571538,52.000000 
	C4.428717,52.000000 2.714359,52.000000 1.000000,52.000000 
	C1.000000,50.933331 1.000000,49.866661 1.395047,48.310089 
	C2.193235,44.498264 2.817779,41.180927 2.886798,37.852077 
	C2.913139,36.581638 1.666504,35.284805 1.000000,34.000000 
	C1.000000,30.638712 1.000000,27.277426 1.000000,23.458069 
z"/>
<path fill="#FEFEFC" opacity="1.000000" stroke="none" 
	d="
M7.000000,52.000000 
	C7.666691,48.525131 8.117039,44.989750 9.066835,41.594067 
	C9.862039,38.751087 11.240811,36.071335 13.013802,33.159679 
	C14.110796,33.000038 14.555169,33.000019 14.999542,33.000000 
	C13.482333,40.375904 12.287396,47.839211 10.320115,55.093052 
	C9.239234,59.078522 6.721566,62.655132 5.123810,66.528336 
	C4.405692,68.269157 4.425674,70.301811 3.982986,72.171814 
	C3.294125,75.081680 2.496268,77.965752 1.372303,80.930374 
	C1.000000,72.979103 1.000000,64.958199 1.407013,56.468666 
	C4.690858,56.155277 7.284971,55.943981 7.000000,52.000000 
z"/>
<path fill="#FEFDFB" opacity="1.000000" stroke="none" 
	d="
M1.000000,34.464653 
	C1.666504,35.284805 2.913139,36.581638 2.886798,37.852077 
	C2.817779,41.180927 2.193235,44.498264 1.395047,47.910095 
	C1.000000,43.643101 1.000000,39.286201 1.000000,34.464653 
z"/>
<path fill="#FEFDFB" opacity="1.000000" stroke="none" 
	d="
M6.571538,52.000000 
	C7.284971,55.943981 4.690858,56.155277 1.407013,56.000015 
	C1.000000,54.933331 1.000000,53.866661 1.000000,52.399994 
	C2.714359,52.000000 4.428717,52.000000 6.571538,52.000000 
z"/>
<path fill="#FEFDFB" opacity="1.000000" stroke="none" 
	d="
M26.000000,20.999924 
	C27.194374,19.842686 28.388748,18.685450 29.791637,17.263954 
	C30.750074,16.999708 31.499996,16.999720 32.884598,17.283230 
	C39.679638,17.377937 45.839996,17.189146 51.924911,17.374895 
	C49.083340,18.476164 46.354584,19.562483 43.543301,19.854641 
	C37.718765,20.459948 31.850365,20.643154 26.000000,20.999924 
z"/>
<path fill="#FFFEFC" opacity="1.000000" stroke="none" 
	d="
M52.000359,17.000355 
	C45.839996,17.189146 39.679638,17.377937 33.259560,17.283215 
	C36.084248,16.530308 39.159405,15.982988 42.255920,15.615779 
	C44.807358,15.313210 47.392422,15.006863 49.947163,15.104716 
	C52.251389,15.192976 54.534698,15.827234 56.580070,16.610350 
	C55.888470,17.000130 55.444027,17.000256 54.624687,17.000336 
	C53.499977,17.000311 52.750168,17.000332 52.000359,17.000355 
z"/>
<path fill="#FEFDFB" opacity="1.000000" stroke="none" 
	d="
M54.999588,17.000381 
	C55.444027,17.000256 55.888470,17.000130 56.666489,16.999977 
	C57.444382,16.999949 57.888695,16.999949 58.666489,16.999931 
	C58.999985,17.444220 59.000004,17.888527 58.624008,18.665653 
	C57.165195,18.332441 56.082390,17.666410 54.999588,17.000381 
z"/>
<path fill="#FEFEFC" opacity="1.000000" stroke="none" 
	d="
M21.000732,36.463055 
	C21.334166,34.591671 21.667387,33.183495 22.343798,31.336361 
	C29.993752,25.439180 37.160233,20.236937 47.366364,22.718897 
	C52.578568,23.986412 58.267078,24.226448 63.630558,23.734472 
	C72.954163,22.879240 81.795334,22.442430 88.390144,30.785126 
	C88.921700,31.457569 90.113899,31.607798 90.999100,32.000694 
	C91.953445,36.416489 92.907791,40.832283 93.930450,45.618927 
	C93.332909,47.431419 92.119110,48.862316 92.090599,50.316452 
	C91.912720,59.388329 92.323433,68.483032 91.830231,77.531532 
	C91.648598,80.863815 89.540924,84.091125 87.851990,87.832626 
	C84.276474,91.318626 81.260513,94.092827 76.295280,93.983231 
	C67.396393,93.786819 58.482052,94.356682 49.579792,94.225334 
	C43.052242,94.129021 36.533676,93.423813 30.011108,92.989983 
	C28.373856,91.218063 26.736601,89.446144 25.271118,87.182327 
	C25.445650,86.290749 25.448412,85.891068 25.451176,85.491394 
	C24.967987,85.659660 24.484802,85.827919 24.001616,85.996185 
	C23.001415,83.120323 21.258596,80.275024 21.138762,77.362930 
	C20.763142,68.235176 20.999117,59.082253 20.997250,49.470684 
	C20.997725,44.976948 20.999123,40.951607 21.000732,36.463055 
M42.774811,45.053875 
	C35.392654,45.220295 33.295010,47.290985 33.190662,54.583157 
	C33.147831,57.576775 33.140671,60.571903 33.180824,63.565495 
	C33.261486,69.578857 35.408794,72.094269 41.414726,72.502579 
	C46.051994,72.817841 50.730995,72.471039 55.379490,72.682014 
	C60.657688,72.921570 65.327568,72.108368 68.004822,66.527214 
	C69.787170,67.354645 71.266930,68.039398 72.744858,68.728088 
	C77.470772,70.930290 78.707390,70.213585 78.796814,65.057793 
	C78.871803,60.734261 78.901115,56.406136 78.789513,52.084206 
	C78.672806,47.564281 77.259460,46.717140 73.266891,48.579201 
	C71.637695,49.339035 70.038864,50.163982 68.054100,51.142826 
	C65.844833,45.276226 61.328094,44.664860 56.182007,44.986996 
	C52.039238,45.246323 47.867897,45.049305 42.774811,45.053875 
z"/>
<path fill="#FEF2E3" opacity="1.000000" stroke="none" 
	d="
M29.640305,93.066681 
	C36.533676,93.423813 43.052242,94.129021 49.579792,94.225334 
	C58.482052,94.356682 67.396393,93.786819 76.295280,93.983231 
	C81.260513,94.092827 84.276474,91.318626 87.695969,88.149323 
	C93.195480,88.458771 91.131302,92.028786 89.550217,93.423622 
	C85.517624,96.981178 81.142883,100.402039 76.361900,102.790306 
	C71.472588,105.232674 66.032990,105.215378 60.377644,104.220558 
	C54.968102,103.268974 49.243713,104.273048 43.687874,103.929558 
	C39.927971,103.697090 36.185768,102.764404 32.498329,101.882744 
	C28.278208,100.873726 27.097954,97.447861 29.640305,93.066681 
z"/>
<path fill="#FEFDFB" opacity="1.000000" stroke="none" 
	d="
M24.108925,86.216507 
	C24.484802,85.827919 24.967987,85.659660 25.451176,85.491394 
	C25.448412,85.891068 25.445650,86.290749 25.222645,86.844696 
	C24.677788,86.899071 24.415731,86.711685 24.108925,86.216507 
z"/>
<path fill="#FDFCF9" opacity="1.000000" stroke="none" 
	d="
M91.230637,31.728123 
	C90.113899,31.607798 88.921700,31.457569 88.390144,30.785126 
	C81.795334,22.442430 72.954163,22.879240 63.630558,23.734472 
	C58.267078,24.226448 52.578568,23.986412 47.366364,22.718897 
	C37.160233,20.236937 29.993752,25.439180 22.343880,30.949066 
	C21.236462,30.337151 20.472147,29.673571 19.353695,28.754969 
	C18.999556,28.499949 18.999161,28.000195 19.298374,27.855839 
	C20.731800,26.141039 21.866014,24.570595 23.000229,23.000153 
	C23.906137,22.526173 24.812046,22.052195 25.858978,21.289070 
	C31.850365,20.643154 37.718765,20.459948 43.543301,19.854641 
	C46.354584,19.562483 49.083340,18.476164 51.924911,17.374897 
	C52.750168,17.000332 53.499977,17.000311 54.624687,17.000336 
	C56.082390,17.666410 57.165195,18.332441 58.624077,18.999123 
	C60.388958,18.999809 61.777763,18.999846 63.583206,18.999826 
	C70.084183,19.349243 76.584412,18.495577 82.127220,20.411604 
	C86.955521,22.080639 90.703300,26.875456 94.964264,30.644470 
	C93.820724,31.151751 92.641441,31.303652 91.230637,31.728123 
z"/>
<path fill="#FEFDFB" opacity="1.000000" stroke="none" 
	d="
M22.615944,23.000526 
	C21.866014,24.570595 20.731800,26.141039 18.949509,27.910450 
	C17.534388,29.739305 16.767347,31.369196 16.000305,32.999084 
	C15.833513,32.999283 15.666721,32.999481 15.249736,32.999840 
	C14.555169,33.000019 14.110796,33.000038 13.333136,33.000027 
	C15.341655,28.987940 15.923888,23.351326 22.615944,23.000526 
z"/>
<path fill="#FEFEFC" opacity="1.000000" stroke="none" 
	d="
M16.288677,32.858688 
	C16.767347,31.369196 17.534388,29.739305 18.650295,28.054806 
	C18.999161,28.000195 18.999556,28.499949 18.999634,28.749821 
	C18.192158,30.239229 17.384602,31.478762 16.288677,32.858688 
z"/>
<path fill="#F4A36A" opacity="1.000000" stroke="none" 
	d="
M43.242023,45.054317 
	C47.867897,45.049305 52.039238,45.246323 56.182007,44.986996 
	C61.328094,44.664860 65.844833,45.276226 68.054100,51.142826 
	C70.038864,50.163982 71.637695,49.339035 73.266891,48.579201 
	C77.259460,46.717140 78.672806,47.564281 78.789513,52.084206 
	C78.901115,56.406136 78.871803,60.734261 78.796814,65.057793 
	C78.707390,70.213585 77.470772,70.930290 72.744858,68.728088 
	C71.266930,68.039398 69.787170,67.354645 68.004822,66.527214 
	C65.327568,72.108368 60.657688,72.921570 55.379490,72.682014 
	C50.730995,72.471039 46.051994,72.817841 41.414726,72.502579 
	C35.408794,72.094269 33.261486,69.578857 33.180824,63.565495 
	C33.140671,60.571903 33.147831,57.576775 33.190662,54.583157 
	C33.295010,47.290985 35.392654,45.220295 43.242023,45.054317 
M48.542950,49.922119 
	C36.407394,50.104736 38.225639,48.387566 38.036259,60.609074 
	C38.020809,61.606026 38.116852,62.609024 38.040413,63.599907 
	C37.804695,66.655571 39.432835,67.804924 42.228600,67.807518 
	C47.713791,67.812607 53.198990,67.814598 58.684181,67.810143 
	C61.600521,67.807770 62.673244,66.242340 62.885330,63.428455 
	C63.903511,49.919689 63.951767,49.923298 50.517994,49.916843 
	C50.185555,49.916683 49.853119,49.918587 48.542950,49.922119 
M69.296806,55.761395 
	C68.616570,57.072250 67.090851,59.252487 67.396431,59.549671 
	C69.090988,61.197651 71.230804,62.387775 73.606598,63.997936 
	C73.606598,60.084236 73.606598,57.256420 73.606598,54.006741 
	C72.041924,54.601223 71.000099,54.997055 69.296806,55.761395 
z"/>
<path fill="#FEFBF4" opacity="1.000000" stroke="none" 
	d="
M49.031815,49.920822 
	C49.853119,49.918587 50.185555,49.916683 50.517994,49.916843 
	C63.951767,49.923298 63.903511,49.919689 62.885330,63.428455 
	C62.673244,66.242340 61.600521,67.807770 58.684181,67.810143 
	C53.198990,67.814598 47.713791,67.812607 42.228600,67.807518 
	C39.432835,67.804924 37.804695,66.655571 38.040413,63.599907 
	C38.116852,62.609024 38.020809,61.606026 38.036259,60.609074 
	C38.225639,48.387566 36.407394,50.104736 49.031815,49.920822 
z"/>
<path fill="#FFF5E4" opacity="1.000000" stroke="none" 
	d="
M69.627541,55.577141 
	C71.000099,54.997055 72.041924,54.601223 73.606598,54.006741 
	C73.606598,57.256420 73.606598,60.084236 73.606598,63.997936 
	C71.230804,62.387775 69.090988,61.197651 67.396431,59.549671 
	C67.090851,59.252487 68.616570,57.072250 69.627541,55.577141 
z"/>
</svg>