<svg width="71" height="72" viewBox="0 0 71 72" fill="none" xmlns="http://www.w3.org/2000/svg">
<rect y="0.5" width="71" height="71" rx="17" fill="url(#paint0_linear_201_1338)" fill-opacity="0.1"/>
<path d="M52.4167 16.75H18.5833C16.6605 16.75 14.8165 17.5138 13.4568 18.8735C12.0972 20.2331 11.3333 22.0772 11.3333 24V43.3333C11.3333 45.2562 12.0972 47.1002 13.4568 48.4599C14.8165 49.8195 16.6605 50.5833 18.5833 50.5833H33.0833V55.4167H23.4167C22.7757 55.4167 22.161 55.6713 21.7078 56.1245C21.2546 56.5777 21 57.1924 21 57.8333C21 58.4743 21.2546 59.089 21.7078 59.5422C22.161 59.9954 22.7757 60.25 23.4167 60.25H47.5833C48.2243 60.25 48.839 59.9954 49.2922 59.5422C49.7454 59.089 50 58.4743 50 57.8333C50 57.1924 49.7454 56.5777 49.2922 56.1245C48.839 55.6713 48.2243 55.4167 47.5833 55.4167H37.9167V50.5833H52.4167C54.3395 50.5833 56.1836 49.8195 57.5432 48.4599C58.9028 47.1002 59.6667 45.2562 59.6667 43.3333V24C59.6667 22.0772 58.9028 20.2331 57.5432 18.8735C56.1836 17.5138 54.3395 16.75 52.4167 16.75ZM54.8333 43.3333C54.8333 43.9743 54.5787 44.589 54.1255 45.0422C53.6723 45.4954 53.0576 45.75 52.4167 45.75H18.5833C17.9424 45.75 17.3277 45.4954 16.8745 45.0422C16.4213 44.589 16.1667 43.9743 16.1667 43.3333V24C16.1667 23.3591 16.4213 22.7444 16.8745 22.2912C17.3277 21.8379 17.9424 21.5833 18.5833 21.5833H52.4167C53.0576 21.5833 53.6723 21.8379 54.1255 22.2912C54.5787 22.7444 54.8333 23.3591 54.8333 24V43.3333Z" fill="#FD7D72"/>
<defs>
<linearGradient id="paint0_linear_201_1338" x1="1.94239e-07" y1="0.811401" x2="76.6621" y2="7.568" gradientUnits="userSpaceOnUse">
<stop stop-color="#FE9A52"/>
<stop offset="1" stop-color="#FF5748"/>
</linearGradient>
</defs>
</svg>
