<svg width="71" height="72" viewBox="0 0 71 72" fill="none" xmlns="http://www.w3.org/2000/svg">
<rect y="0.5" width="71" height="71" rx="17" fill="url(#paint0_linear_201_1346)" fill-opacity="0.1"/>
<path d="M53.75 18.5625C52.8907 16.7671 51.535 15.2556 49.8434 14.2067C48.1519 13.1578 46.1952 12.6155 44.205 12.644C42.2148 12.6725 40.2745 13.2706 38.6136 14.3675C36.9527 15.4643 35.6409 17.0141 34.8333 18.8333H25.5833C23.9257 18.8333 22.336 19.4918 21.1639 20.6639C19.9918 21.836 19.3333 23.4257 19.3333 25.0833V33.4166C19.3333 33.9692 19.5528 34.4991 19.9435 34.8898C20.3342 35.2805 20.8641 35.5 21.4167 35.5C21.9692 35.5 22.4991 35.2805 22.8898 34.8898C23.2805 34.4991 23.5 33.9692 23.5 33.4166V25.0833C23.5 24.5308 23.7195 24.0009 24.1102 23.6102C24.5009 23.2195 25.0308 23 25.5833 23H31.375C30.3379 24.1409 29.7592 25.6249 29.75 27.1666C29.75 28.8242 30.4085 30.414 31.5806 31.5861C32.7527 32.7582 34.3424 33.4166 36 33.4166H51.2708C53.0849 33.4297 54.8442 32.7956 56.2327 31.6281C57.6213 30.4607 58.5481 28.8364 58.8467 27.0471C59.1454 25.2577 58.7963 23.4205 57.8621 21.8654C56.928 20.3103 55.47 19.1392 53.75 18.5625ZM51.2708 29.25H36C35.4475 29.25 34.9176 29.0305 34.5269 28.6398C34.1362 28.2491 33.9167 27.7192 33.9167 27.1666C33.9167 26.6141 34.1362 26.0842 34.5269 25.6935C34.9176 25.3028 35.4475 25.0833 36 25.0833C36.5525 25.0833 37.0824 24.8638 37.4731 24.4731C37.8638 24.0824 38.0833 23.5525 38.0833 23C38.0665 21.5132 38.5803 20.0692 39.5324 18.9271C40.4845 17.7851 41.8126 17.0199 43.2781 16.769C44.7436 16.518 46.2506 16.7978 47.5284 17.558C48.8062 18.3181 49.7712 19.509 50.25 20.9166C50.3691 21.2746 50.5832 21.5936 50.8694 21.8394C51.1556 22.0853 51.5031 22.2488 51.875 22.3125C52.6897 22.4474 53.4286 22.8712 53.9565 23.5062C54.4844 24.1413 54.7661 24.9451 54.75 25.7708C54.75 26.2277 54.66 26.6801 54.4852 27.1022C54.3103 27.5243 54.054 27.9079 53.731 28.2309C53.4079 28.554 53.0244 28.8103 52.6023 28.9851C52.1801 29.16 51.7277 29.25 51.2708 29.25ZM50.5833 37.5833C50.0308 37.5833 49.5009 37.8028 49.1102 38.1935C48.7195 38.5842 48.5 39.1141 48.5 39.6666V45.9166C48.5 46.4692 48.2805 46.9991 47.8898 47.3898C47.4991 47.7805 46.9692 48 46.4167 48H41.7083C41.3057 46.969 40.6834 46.038 39.8847 45.2717C39.0861 44.5054 38.1301 43.9221 37.0833 43.5625C36.1393 41.559 34.5812 39.9085 32.6353 38.8508C30.6894 37.793 28.457 37.383 26.2622 37.6803C24.0675 37.9775 22.0246 38.9666 20.4302 40.5039C18.8358 42.0412 17.7729 44.0467 17.3958 46.2291C15.985 46.6929 14.7853 47.6438 14.0119 48.9116C13.2384 50.1794 12.9417 51.6812 13.1749 53.1479C13.408 54.6146 14.1559 55.9504 15.2843 56.9158C16.4128 57.8812 17.8482 58.4133 19.3333 58.4166H34.6042C36.3879 58.4166 38.1152 57.7913 39.4856 56.6493C40.8559 55.5074 41.7825 53.9212 42.1042 52.1666H46.4167C48.0743 52.1666 49.664 51.5082 50.8361 50.3361C52.0082 49.164 52.6667 47.5742 52.6667 45.9166V39.6666C52.6667 39.1141 52.4472 38.5842 52.0565 38.1935C51.6658 37.8028 51.1359 37.5833 50.5833 37.5833ZM34.6042 54.25H19.3333C18.7808 54.25 18.2509 54.0305 17.8602 53.6398C17.4695 53.2491 17.25 52.7192 17.25 52.1666C17.25 51.6141 17.4695 51.0842 17.8602 50.6935C18.2509 50.3028 18.7808 50.0833 19.3333 50.0833C19.8859 50.0833 20.4158 49.8638 20.8065 49.4731C21.1972 49.0824 21.4167 48.5525 21.4167 48C21.3999 46.5132 21.9136 45.0692 22.8657 43.9271C23.8178 42.7851 25.1459 42.0199 26.6114 41.769C28.0769 41.518 29.5839 41.7978 30.8617 42.558C32.1396 43.3181 33.1045 44.509 33.5833 45.9166C33.7024 46.2746 33.9165 46.5936 34.2027 46.8394C34.4889 47.0853 34.8365 47.2488 35.2083 47.3125C36.023 47.4474 36.7619 47.8712 37.2899 48.5062C37.8178 49.1413 38.0994 49.9451 38.0833 50.7708C38.0833 51.2277 37.9933 51.6801 37.8185 52.1022C37.6437 52.5243 37.3874 52.9079 37.0643 53.2309C36.7412 53.554 36.3577 53.8103 35.9356 53.9851C35.5135 54.16 35.0611 54.25 34.6042 54.25Z" fill="#FD7D72"/>
<defs>
<linearGradient id="paint0_linear_201_1346" x1="1.94239e-07" y1="0.811401" x2="76.6621" y2="7.568" gradientUnits="userSpaceOnUse">
<stop stop-color="#FE9A52"/>
<stop offset="1" stop-color="#FF5748"/>
</linearGradient>
</defs>
</svg>
