<svg width="71" height="72" viewBox="0 0 71 72" fill="none" xmlns="http://www.w3.org/2000/svg">
<rect y="0.5" width="71" height="71" rx="17" fill="url(#paint0_linear_201_1331)" fill-opacity="0.1"/>
<path d="M19.25 49H28.79C29.0861 49.0017 29.3797 48.9449 29.6538 48.833C29.9279 48.721 30.1773 48.556 30.3875 48.3475L45.9575 32.755L52.3475 26.5C52.5584 26.2908 52.7258 26.042 52.84 25.7678C52.9542 25.4936 53.013 25.1995 53.013 24.9025C53.013 24.6055 52.9542 24.3114 52.84 24.0372C52.7258 23.763 52.5584 23.5142 52.3475 23.305L42.8075 13.6525C42.5983 13.4416 42.3495 13.2742 42.0753 13.16C41.8011 13.0457 41.507 12.9869 41.21 12.9869C40.913 12.9869 40.6189 13.0457 40.3447 13.16C40.0705 13.2742 39.8217 13.4416 39.6125 13.6525L33.2675 20.02L17.6525 35.6125C17.444 35.8227 17.279 36.0721 17.167 36.3462C17.055 36.6203 16.9983 36.9139 17 37.21V46.75C17 47.3467 17.2371 47.919 17.659 48.341C18.081 48.7629 18.6533 49 19.25 49ZM41.21 18.4225L47.5775 24.79L44.3825 27.985L38.015 21.6175L41.21 18.4225ZM21.5 38.1325L34.8425 24.79L41.21 31.1575L27.8675 44.5H21.5V38.1325ZM55.25 53.5H14.75C14.1533 53.5 13.581 53.737 13.159 54.159C12.7371 54.5809 12.5 55.1532 12.5 55.75C12.5 56.3467 12.7371 56.919 13.159 57.341C13.581 57.7629 14.1533 58 14.75 58H55.25C55.8467 58 56.419 57.7629 56.841 57.341C57.2629 56.919 57.5 56.3467 57.5 55.75C57.5 55.1532 57.2629 54.5809 56.841 54.159C56.419 53.737 55.8467 53.5 55.25 53.5Z" fill="#FD7D72"/>
<defs>
<linearGradient id="paint0_linear_201_1331" x1="1.99998" y1="32" x2="76.6381" y2="123.453" gradientUnits="userSpaceOnUse">
<stop stop-color="#FE9A52"/>
<stop offset="1" stop-color="#FF5748"/>
</linearGradient>
</defs>
</svg>
