<svg width="21" height="20" viewBox="0 0 21 20" fill="none" xmlns="http://www.w3.org/2000/svg">
<path d="M10.625 5.30859C13.332 5.30859 15.5664 7.54297 15.5664 10.25C15.5664 13 13.332 15.1914 10.625 15.1914C7.875 15.1914 5.68359 13 5.68359 10.25C5.68359 7.54297 7.875 5.30859 10.625 5.30859ZM10.625 13.4727C12.3867 13.4727 13.8047 12.0547 13.8047 10.25C13.8047 8.48828 12.3867 7.07031 10.625 7.07031C8.82031 7.07031 7.40234 8.48828 7.40234 10.25C7.40234 12.0547 8.86328 13.4727 10.625 13.4727ZM16.8984 5.13672C16.8984 5.78125 16.3828 6.29688 15.7383 6.29688C15.0938 6.29688 14.5781 5.78125 14.5781 5.13672C14.5781 4.49219 15.0938 3.97656 15.7383 3.97656C16.3828 3.97656 16.8984 4.49219 16.8984 5.13672ZM20.1641 6.29688C20.25 7.88672 20.25 12.6562 20.1641 14.2461C20.0781 15.793 19.7344 17.125 18.6172 18.2852C17.5 19.4023 16.125 19.7461 14.5781 19.832C12.9883 19.918 8.21875 19.918 6.62891 19.832C5.08203 19.7461 3.75 19.4023 2.58984 18.2852C1.47266 17.125 1.12891 15.793 1.04297 14.2461C0.957031 12.6562 0.957031 7.88672 1.04297 6.29688C1.12891 4.75 1.47266 3.375 2.58984 2.25781C3.75 1.14062 5.08203 0.796875 6.62891 0.710938C8.21875 0.625 12.9883 0.625 14.5781 0.710938C16.125 0.796875 17.5 1.14062 18.6172 2.25781C19.7344 3.375 20.0781 4.75 20.1641 6.29688ZM18.1016 15.9219C18.6172 14.6758 18.4883 11.668 18.4883 10.25C18.4883 8.875 18.6172 5.86719 18.1016 4.57812C17.7578 3.76172 17.1133 3.07422 16.2969 2.77344C15.0078 2.25781 12 2.38672 10.625 2.38672C9.20703 2.38672 6.19922 2.25781 4.95312 2.77344C4.09375 3.11719 3.44922 3.76172 3.10547 4.57812C2.58984 5.86719 2.71875 8.875 2.71875 10.25C2.71875 11.668 2.58984 14.6758 3.10547 15.9219C3.44922 16.7812 4.09375 17.4258 4.95312 17.7695C6.19922 18.2852 9.20703 18.1562 10.625 18.1562C12 18.1562 15.0078 18.2852 16.2969 17.7695C17.1133 17.4258 17.8008 16.7812 18.1016 15.9219Z" fill="#353738"/>
</svg>
