<svg width="22" height="22" viewBox="0 0 22 22" fill="none" xmlns="http://www.w3.org/2000/svg">
<path d="M10.6562 0.59375C16.543 0.59375 21.3125 5.36328 21.3125 11.25C21.3125 17.1367 16.543 21.9062 10.6562 21.9062C4.76953 21.9062 0 17.1367 0 11.25C0 5.36328 4.76953 0.59375 10.6562 0.59375ZM17.918 15.1602C18.0039 14.9453 17.875 14.7734 17.7031 14.7305C15.7266 14.3867 14.8242 12.3242 14.7812 12.2383C14.6953 12.0234 14.6523 11.8516 14.6953 11.7227C14.8242 11.4219 15.2539 11.293 15.5117 11.207C15.5977 11.207 15.6836 11.1641 15.7266 11.1211C16.2422 10.9492 16.5 10.6914 16.457 10.4336C16.457 10.2188 16.2852 10.0039 16.0273 9.91797C15.8555 9.83203 15.5977 9.83203 15.4258 9.91797C15.2109 10.0469 14.9961 10.0898 14.8242 10.0898C14.6953 10.0898 14.6094 10.0469 14.5664 10.0469C14.6094 9.01562 14.7812 7.55469 14.3945 6.73828C13.707 5.14844 12.2891 4.375 10.7852 4.375C10.7422 4.375 10.5273 4.375 10.4844 4.375C9.88281 4.375 7.86328 4.54688 6.875 6.73828C6.53125 7.55469 6.66016 9.01562 6.70312 10.0469C6.66016 10.0469 6.57422 10.0898 6.44531 10.0898C6.23047 10.0898 6.01562 10.0469 5.75781 9.91797C5.45703 9.78906 4.89844 10.0039 4.8125 10.3477C4.76953 10.5625 4.85547 10.8633 5.54297 11.1641C5.80078 11.25 6.44531 11.3789 6.57422 11.7227C6.66016 11.8516 6.61719 12.0234 6.53125 12.2383C6.48828 12.2383 6.48828 12.2812 6.48828 12.2812C6.44531 12.3672 5.58594 14.3867 3.56641 14.7305C3.4375 14.7305 3.30859 14.9023 3.30859 15.0312C3.35156 15.6328 4.68359 15.8477 5.28516 15.9766C5.32812 16.0195 5.37109 16.3633 5.45703 16.6641C5.5 16.75 5.58594 16.9219 5.84375 16.9219C6.05859 16.9219 6.40234 16.75 6.91797 16.75C7.69141 16.75 7.94922 16.9219 8.55078 17.3516C8.98047 17.6523 9.71094 18.2109 10.6133 18.125C11.5156 18.168 12.1172 17.7812 12.7188 17.3516C13.3203 16.9219 13.5781 16.75 14.3516 16.75C14.9102 16.75 15.168 16.8789 15.4688 16.8789C15.6406 16.8789 15.7695 16.793 15.8125 16.6211C15.8984 16.3633 15.9414 16.0195 15.9844 15.9766C17.1445 15.7617 17.7891 15.5039 17.918 15.1602Z" fill="#353738"/>
</svg>
